<svg id="svg" version="1.1" xmlns="http://www.w3.org/2000/svg" xmlns:xlink="http://www.w3.org/1999/xlink" width="400" height="400" viewBox="0, 0, 400,400"><g id="svgg"><path id="path0" d="M195.961 51.009 C 182.380 52.412,170.959 62.233,167.582 75.412 C 166.450 79.828,166.500 78.010,166.500 114.500 C 166.500 137.936,166.447 147.739,166.316 148.367 C 165.737 151.144,163.722 153.416,161.038 154.321 C 159.505 154.837,133.664 154.864,132.015 154.351 C 130.110 153.758,128.293 152.229,127.401 150.469 C 126.482 148.656,126.505 149.242,126.502 127.535 C 126.500 105.398,126.540 106.307,125.439 103.697 C 123.492 99.080,119.216 96.066,114.083 95.692 C 103.913 94.952,98.060 98.028,95.892 105.250 C 95.512 106.515,95.311 160.969,95.676 163.750 C 96.721 171.716,102.275 178.432,109.931 180.990 C 113.591 182.212,112.507 182.165,137.102 182.166 C 151.379 182.166,159.437 182.226,160.018 182.337 C 162.785 182.862,164.924 184.672,166.018 187.417 L 166.417 188.417 166.503 264.333 L 166.590 340.250 167.038 342.250 C 170.326 356.924,181.291 367.009,195.750 368.659 C 197.692 368.881,205.479 368.881,207.415 368.659 C 220.982 367.105,232.259 357.389,235.596 344.379 C 236.721 339.989,236.667 342.172,236.667 301.666 C 236.667 275.554,236.720 264.762,236.851 264.133 C 237.415 261.429,239.270 259.290,241.917 258.293 L 242.917 257.917 268.500 257.831 L 294.083 257.745 295.327 257.362 C 299.724 256.009,302.969 252.909,304.483 248.617 L 305.083 246.917 305.083 194.833 L 305.083 142.750 304.683 141.529 C 303.143 136.825,299.709 134.681,293.493 134.541 C 285.930 134.370,282.349 136.400,280.479 141.920 C 280.293 142.467,280.239 150.130,280.169 185.750 L 280.083 228.917 279.708 229.903 C 278.786 232.322,277.143 233.954,274.684 234.890 C 273.594 235.306,245.917 235.550,243.417 235.167 C 240.176 234.670,237.422 232.028,236.833 228.852 C 236.724 228.263,236.667 202.779,236.667 154.736 C 236.667 76.461,236.701 80.027,235.905 76.542 C 232.917 63.473,222.624 53.696,209.333 51.305 C 207.158 50.914,198.696 50.726,195.961 51.009 " stroke="none" fill="#232424" fill-rule="evenodd"></path><path id="path1" d="M192.750 31.267 C 188.194 31.597,186.685 31.728,184.167 32.012 C 104.342 40.998,48.284 115.202,61.100 194.917 C 69.844 249.302,111.423 295.089,164.167 308.415 C 165.129 308.658,166.049 308.895,166.210 308.940 C 166.489 309.019,166.501 306.190,166.460 248.720 L 166.417 188.417 166.018 187.417 C 164.924 184.672,162.785 182.862,160.018 182.337 C 159.437 182.226,151.379 182.166,137.102 182.166 C 112.507 182.165,113.591 182.212,109.931 180.990 C 102.275 178.432,96.721 171.716,95.676 163.750 C 95.311 160.969,95.512 106.515,95.892 105.250 C 98.060 98.028,103.913 94.952,114.083 95.692 C 119.216 96.066,123.492 99.080,125.439 103.697 C 126.540 106.307,126.500 105.398,126.502 127.535 C 126.505 149.242,126.482 148.656,127.401 150.469 C 128.293 152.229,130.110 153.758,132.015 154.351 C 133.664 154.864,159.505 154.837,161.038 154.321 C 163.722 153.416,165.737 151.144,166.316 148.367 C 166.447 147.739,166.500 137.936,166.500 114.500 C 166.500 85.971,166.534 81.257,166.753 79.588 C 168.646 65.146,179.318 53.995,193.833 51.293 C 196.703 50.759,206.464 50.759,209.333 51.293 C 222.726 53.786,232.916 63.470,235.905 76.542 C 236.701 80.027,236.667 76.461,236.667 154.736 C 236.667 202.779,236.724 228.263,236.833 228.852 C 237.422 232.028,240.176 234.670,243.417 235.167 C 245.917 235.550,273.594 235.306,274.684 234.890 C 277.143 233.954,278.786 232.322,279.708 229.903 L 280.083 228.917 280.169 185.750 C 280.239 150.130,280.293 142.467,280.479 141.920 C 282.349 136.400,285.930 134.370,293.493 134.541 C 299.709 134.681,303.143 136.825,304.683 141.529 L 305.083 142.750 305.083 194.833 L 305.083 246.917 304.483 248.617 C 302.969 252.909,299.724 256.009,295.327 257.362 L 294.083 257.745 268.500 257.831 L 242.917 257.917 241.917 258.293 C 239.270 259.290,237.415 261.429,236.851 264.133 C 236.497 265.832,236.600 308.374,236.958 308.274 C 252.697 303.867,265.749 297.925,278.583 289.323 C 324.641 258.455,348.224 204.138,339.400 149.250 C 330.440 93.520,288.157 48.059,233.083 34.943 C 226.186 33.300,220.339 32.359,212.083 31.563 C 209.586 31.322,195.061 31.100,192.750 31.267 " stroke="none" fill="#046424" fill-rule="evenodd"></path></g></svg>